<svg xmlns="http://www.w3.org/2000/svg" viewBox="0 0 298.8 294.1" enable-background="new 0 0 298.8 294.1"><g fill="#363636"><path d="M214.7 121.2c.7-16.2-4-29.2-10.4-39.6-6.4-10.4-17.9-20.7-30.6-19.5-7.6.7-10.9 3.6-12.6 7.6-1.7 4.1-2.1 13.3-2.1 17.2v97.3c18.4-2.5 35.5-13.1 46.2-30 5.9-9.4 9-21.9 9.5-33M149.4 1C66.9 1 0 66.9 0 148.1 0 223.6 57.5 285.6 131.8 294c3.7.2 5.8-.2 7.6-1.6 1.4-1.2 2-3.2 2-4.9l.1-87.7c-40.2-4.2-72.4-37.4-71.9-78.1.5-38.9 27.3-70.1 62.7-77.4.9-.2 1.6-.4 2.1.1.6.5.2 1.9.2 1.9l-2.7 13s-.2.8-.4 1.1c-.2.2-.6.4-.9.5-15.4 4.8-29.3 15.2-36.1 27.8-5.6 10.5-9.3 18.4-9.3 32.7 0 30.8 24.2 59.1 56.2 62.9V87c0-10.2.5-22 6.5-30.2 4.7-6.3 12.8-10.2 25.6-10.2 18.5 0 40.6 13.5 51.7 42.8 3.4 8.8 5.4 20.1 5.3 32.2-.1 40.6-31.8 73.8-71.8 78.2l-.1 87.7c0 2.3.7 4 2.1 5.1 1.6 1.3 3 1.8 7.5 1.4 1.7-.1 4.9-.6 6.2-.8 70.5-11.8 124.2-72.2 124.2-145C298.8 66.9 231.9 1 149.4 1"/></g></svg>